<?xml version="1.0" standalone="yes"?>

<svg version="1.1" viewBox="0.0 0.0 559.9107611548557 455.3490813648294" fill="none" stroke="none" stroke-linecap="square" stroke-miterlimit="10" xmlns="http://www.w3.org/2000/svg" xmlns:xlink="http://www.w3.org/1999/xlink"><clipPath id="p.0"><path d="m0 0l559.91077 0l0 455.3491l-559.91077 0l0 -455.3491z" clip-rule="nonzero"></path></clipPath><g clip-path="url(#p.0)"><path fill="#000000" fill-opacity="0.0" d="m0 0l559.91077 0l0 455.3491l-559.91077 0z" fill-rule="nonzero"></path><path fill="#cfe2f3" d="m320.66904 297.4243c0 0 0.43832397 -1.6856384 0.43832397 -1.6856384c0 0 -0.43832397 1.6856384 -0.43832397 1.6856384z" fill-rule="nonzero"></path><path stroke="#000000" stroke-width="1.0" stroke-linejoin="round" stroke-linecap="butt" d="m320.66904 297.4243c0 0 0.43832397 -1.6856384 0.43832397 -1.6856384c0 0 -0.43832397 1.6856384 -0.43832397 1.6856384z" fill-rule="nonzero"></path><path fill="#ffffff" d="m207.10826 217.60226c1.393692 -2.6787567 11.070419 -9.059982 17.196838 -12.132416c6.126419 -3.0724182 13.776901 -4.568863 19.561691 -6.3021393c5.784775 -1.7332611 9.966751 -2.3641663 15.146973 -4.0974274c5.180237 -1.7332611 10.517944 -5.199356 15.934387 -6.3021393c5.416443 -1.1027985 10.56955 -1.4173737 16.5643 -0.31459045c5.994751 1.1027832 13.751099 4.6204376 19.404205 6.931305c5.6531067 2.3108673 10.464996 5.515686 14.514435 6.9339294c4.0494385 1.4182434 7.967621 0.9717102 9.782135 1.575531c1.8145447 0.6038208 1.0262756 1.1805573 1.105011 2.047409c0.07873535 0.8668518 -0.76379395 0.94725037 -0.63256836 3.1537018c0.1312561 2.2064362 2.0245056 3.9396973 1.4199524 10.084991c-0.6045532 6.145279 -3.7064514 21.035522 -5.047241 26.786713c-1.3407593 5.75119 -0.9724426 5.566803 -2.9973755 7.7203827c-2.0249329 2.1535797 -5.339447 3.9405975 -9.152222 5.2010956c-3.8127747 1.2605286 -8.307953 2.4410706 -13.724426 2.3619995c-5.416443 -0.079071045 -13.804901 -1.838562 -18.774261 -2.8364868c-4.969391 -0.9979248 -6.2038574 -1.4706726 -11.041992 -3.1510773c-4.8381653 -1.6803894 -12.570007 -4.7515106 -17.986877 -6.931305c-5.4168854 -2.1797943 -10.439194 -3.9410248 -14.514435 -6.147461c-4.075241 -2.2064514 -6.492569 -4.517761 -9.937012 -7.091217c-3.4444427 -2.573471 -7.731842 -6.09111 -10.72966 -8.349548c-2.997818 -2.2584534 -4.575241 -3.6775665 -7.2572174 -5.201111c-2.6819763 -1.523529 -10.228348 -1.261383 -8.8346405 -3.9401398z" fill-rule="nonzero"></path><path stroke="#000000" stroke-width="1.0" stroke-linejoin="round" stroke-linecap="butt" d="m207.10826 217.60226c1.393692 -2.6787567 11.070419 -9.059982 17.196838 -12.132416c6.126419 -3.0724182 13.776901 -4.568863 19.561691 -6.3021393c5.784775 -1.7332611 9.966751 -2.3641663 15.146973 -4.0974274c5.180237 -1.7332611 10.517944 -5.199356 15.934387 -6.3021393c5.416443 -1.1027985 10.56955 -1.4173737 16.5643 -0.31459045c5.994751 1.1027832 13.751099 4.6204376 19.404205 6.931305c5.6531067 2.3108673 10.464996 5.515686 14.514435 6.9339294c4.0494385 1.4182434 7.967621 0.9717102 9.782135 1.575531c1.8145447 0.6038208 1.0262756 1.1805573 1.105011 2.047409c0.07873535 0.8668518 -0.76379395 0.94725037 -0.63256836 3.1537018c0.1312561 2.2064362 2.0245056 3.9396973 1.4199524 10.084991c-0.6045532 6.145279 -3.7064514 21.035522 -5.047241 26.786713c-1.3407593 5.75119 -0.9724426 5.566803 -2.9973755 7.7203827c-2.0249329 2.1535797 -5.339447 3.9405975 -9.152222 5.2010956c-3.8127747 1.2605286 -8.307953 2.4410706 -13.724426 2.3619995c-5.416443 -0.079071045 -13.804901 -1.838562 -18.774261 -2.8364868c-4.969391 -0.9979248 -6.2038574 -1.4706726 -11.041992 -3.1510773c-4.8381653 -1.6803894 -12.570007 -4.7515106 -17.986877 -6.931305c-5.4168854 -2.1797943 -10.439194 -3.9410248 -14.514435 -6.147461c-4.075241 -2.2064514 -6.492569 -4.517761 -9.937012 -7.091217c-3.4444427 -2.573471 -7.731842 -6.09111 -10.72966 -8.349548c-2.997818 -2.2584534 -4.575241 -3.6775665 -7.2572174 -5.201111c-2.6819763 -1.523529 -10.228348 -1.261383 -8.8346405 -3.9401398z" fill-rule="nonzero"></path><path fill="#ffffff" d="m287.1828 200.41154c-4.9304504 -1.9010468 -10.466736 -2.680069 -16.089233 -1.55719c-5.6224976 1.1228943 -13.407257 5.529663 -17.645676 8.294495c-4.2384033 2.7648315 -6.400696 4.838455 -7.784775 8.294495c-1.384079 3.4560394 -1.2117157 8.554031 -0.51968384 12.441757c0.6920471 3.8877106 0.69291687 8.11972 4.671921 10.884552c3.979004 2.7648315 13.406815 5.0132294 19.202103 5.7044373c5.7952576 0.6912079 11.157898 0.8620453 15.56955 -1.55719c4.411621 -2.41922 8.2187195 -8.897873 10.900269 -12.958176c2.6815186 -4.0603027 4.324127 -8.120605 5.188965 -11.4036255c0.86483765 -3.28302 2.2489014 -5.270569 0 -8.294495c-2.2489014 -3.0239258 -8.562988 -7.9480286 -13.493439 -9.84906z" fill-rule="nonzero"></path><path stroke="#000000" stroke-width="1.0" stroke-linejoin="round" stroke-linecap="butt" d="m287.1828 200.41154c-4.9304504 -1.9010468 -10.466736 -2.680069 -16.089233 -1.55719c-5.6224976 1.1228943 -13.407257 5.529663 -17.645676 8.294495c-4.2384033 2.7648315 -6.400696 4.838455 -7.784775 8.294495c-1.384079 3.4560394 -1.2117157 8.554031 -0.51968384 12.441757c0.6920471 3.8877106 0.69291687 8.11972 4.671921 10.884552c3.979004 2.7648315 13.406815 5.0132294 19.202103 5.7044373c5.7952576 0.6912079 11.157898 0.8620453 15.56955 -1.55719c4.411621 -2.41922 8.2187195 -8.897873 10.900269 -12.958176c2.6815186 -4.0603027 4.324127 -8.120605 5.188965 -11.4036255c0.86483765 -3.28302 2.2489014 -5.270569 0 -8.294495c-2.2489014 -3.0239258 -8.562988 -7.9480286 -13.493439 -9.84906z" fill-rule="nonzero"></path><path fill="#674ea7" d="m336.98468 203.57812c-0.102386475 -3.953247 0.8529968 -7.5997925 0.61416626 -11.450806c-0.23886108 -3.8510132 -1.8425293 -8.962982 -2.0472412 -11.655289c-0.20474243 -2.6923065 1.6719055 -1.499939 0.8188782 -4.498535c-0.8529968 -2.998581 -4.7086487 -8.756317 -5.9370117 -13.492966c-1.2283325 -4.736664 -2.0813599 -10.973694 -1.4330444 -14.926956c0.6482849 -3.953247 2.9685059 -6.5092316 5.322815 -8.792587c2.3543396 -2.2833405 5.902893 -4.566681 8.803162 -4.907486c2.9002686 -0.3407898 6.4829407 0.9542389 8.598419 2.8627014c2.1154785 1.9084778 3.4120789 4.0895844 4.0944824 8.588104c0.6824341 4.498535 -1.3648071 15.097351 0 18.403091c1.3648376 3.3057404 5.834656 0.74975586 8.188995 1.4313507c2.354309 0.68159485 3.173645 2.2492676 5.936981 2.6582184c2.7633667 0.40896606 7.436157 -1.3627472 10.643066 -0.20446777c3.2069092 1.1582642 6.0393677 6.0299377 8.598419 7.154129c2.5590515 1.1241913 4.401581 -0.9542389 6.75589 -0.4089508c2.3543396 0.5452728 5.629944 1.4654236 7.3700867 3.6806183c1.7401733 2.2151794 3.1391296 6.5773926 3.0708618 9.610489c-0.068237305 3.0331116 -2.7637634 6.100281 -3.4803162 8.588104c-0.7165222 2.4878387 -0.27294922 4.123657 -0.8188782 6.338852c-0.54592896 2.2151794 -1.4671936 5.111969 -2.4566956 6.9522705c-0.98950195 1.8403168 -2.5249329 1.9084778 -3.4803162 4.0895844c-0.9553833 2.1811066 0.17059326 6.7137146 -2.2519836 8.997055c-2.4225464 2.2833557 -7.3363953 3.8510132 -12.283447 4.703018c-4.9470825 0.85198975 -11.871826 0.7156677 -17.398956 0.4089508c-5.52713 -0.30671692 -12.112854 -1.1587067 -15.763763 -2.2492676c-3.65094 -1.0905457 -4.4356995 -2.6923065 -6.141754 -4.294052c-1.7060242 -1.6017456 -3.2073364 -2.3855896 -4.0944824 -5.316452c-0.887146 -2.9308472 -1.1259766 -8.31546 -1.2283325 -12.268723z" fill-rule="nonzero"></path><path stroke="#000000" stroke-width="1.0" stroke-linejoin="round" stroke-linecap="butt" d="m336.98468 203.57812c-0.102386475 -3.953247 0.8529968 -7.5997925 0.61416626 -11.450806c-0.23886108 -3.8510132 -1.8425293 -8.962982 -2.0472412 -11.655289c-0.20474243 -2.6923065 1.6719055 -1.499939 0.8188782 -4.498535c-0.8529968 -2.998581 -4.7086487 -8.756317 -5.9370117 -13.492966c-1.2283325 -4.736664 -2.0813599 -10.973694 -1.4330444 -14.926956c0.6482849 -3.953247 2.9685059 -6.5092316 5.322815 -8.792587c2.3543396 -2.2833405 5.902893 -4.566681 8.803162 -4.907486c2.9002686 -0.3407898 6.4829407 0.9542389 8.598419 2.8627014c2.1154785 1.9084778 3.4120789 4.0895844 4.0944824 8.588104c0.6824341 4.498535 -1.3648071 15.097351 0 18.403091c1.3648376 3.3057404 5.834656 0.74975586 8.188995 1.4313507c2.354309 0.68159485 3.173645 2.2492676 5.936981 2.6582184c2.7633667 0.40896606 7.436157 -1.3627472 10.643066 -0.20446777c3.2069092 1.1582642 6.0393677 6.0299377 8.598419 7.154129c2.5590515 1.1241913 4.401581 -0.9542389 6.75589 -0.4089508c2.3543396 0.5452728 5.629944 1.4654236 7.3700867 3.6806183c1.7401733 2.2151794 3.1391296 6.5773926 3.0708618 9.610489c-0.068237305 3.0331116 -2.7637634 6.100281 -3.4803162 8.588104c-0.7165222 2.4878387 -0.27294922 4.123657 -0.8188782 6.338852c-0.54592896 2.2151794 -1.4671936 5.111969 -2.4566956 6.9522705c-0.98950195 1.8403168 -2.5249329 1.9084778 -3.4803162 4.0895844c-0.9553833 2.1811066 0.17059326 6.7137146 -2.2519836 8.997055c-2.4225464 2.2833557 -7.3363953 3.8510132 -12.283447 4.703018c-4.9470825 0.85198975 -11.871826 0.7156677 -17.398956 0.4089508c-5.52713 -0.30671692 -12.112854 -1.1587067 -15.763763 -2.2492676c-3.65094 -1.0905457 -4.4356995 -2.6923065 -6.141754 -4.294052c-1.7060242 -1.6017456 -3.2073364 -2.3855896 -4.0944824 -5.316452c-0.887146 -2.9308472 -1.1259766 -8.31546 -1.2283325 -12.268723z" fill-rule="nonzero"></path><path fill="#000000" fill-opacity="0.0" d="m337.83746 217.31012c2.3617554 -1.6179199 5.7235413 6.9247437 10.719177 8.708694c4.9956055 1.7839355 12.442688 1.9949799 19.254578 1.9949799c6.8118896 0 17.166656 -1.1788177 21.61679 -1.9949799c4.4501343 -0.81617737 4.1154785 -4.2931824 5.0839844 -2.9020233c0.96850586 1.3911438 0.8477783 6.864456 0.7270508 11.248947c-0.12072754 4.384491 -0.66448975 9.7664795 -1.4514465 15.058029c-0.7869568 5.2915344 -2.6343079 11.85321 -3.2703552 16.691223c-0.63601685 4.8380127 -0.42474365 9.524445 -0.54592896 12.336884c-0.121154785 2.8124695 1.0905762 1.7861328 -0.18109131 4.5378723c-1.2716675 2.751709 -5.087494 8.631348 -7.448822 11.972473c-2.3613281 3.3411255 -4.236664 6.09375 -6.7191467 8.07431c-2.4825134 1.9805603 -5.1181335 2.902008 -8.175873 3.8090515c-3.0577393 0.90704346 -6.477234 1.4514465 -10.170593 1.6332092c-3.6933594 0.1817627 -8.416901 0.6365967 -11.989502 -0.5426636c-3.5726013 -1.1792297 -7.478119 -3.539032 -9.4461975 -6.5328064c-1.9680786 -2.993805 -1.665802 -7.83136 -2.3622131 -11.42984c-0.69641113 -3.5984802 -1.0292969 -7.4093018 -1.8162537 -10.161041c-0.7869873 -2.751709 -2.4212646 -3.8697815 -2.9055176 -6.349304c-0.48425293 -2.4795227 -0.36306763 -4.808319 0 -8.527832c0.36306763 -3.7194824 1.2401428 -8.9210205 2.1784668 -13.7892c0.938324 -4.868164 2.3009644 -9.780457 3.4514465 -15.4198c1.1504822 -5.639328 1.0896912 -16.798279 3.4514465 -18.416183z" fill-rule="nonzero"></path><path stroke="#000000" stroke-width="1.0" stroke-linejoin="round" stroke-linecap="butt" d="m337.83746 217.31012c2.3617554 -1.6179199 5.7235413 6.9247437 10.719177 8.708694c4.9956055 1.7839355 12.442688 1.9949799 19.254578 1.9949799c6.8118896 0 17.166656 -1.1788177 21.61679 -1.9949799c4.4501343 -0.81617737 4.1154785 -4.2931824 5.0839844 -2.9020233c0.96850586 1.3911438 0.8477783 6.864456 0.7270508 11.248947c-0.12072754 4.384491 -0.66448975 9.7664795 -1.4514465 15.058029c-0.7869568 5.2915344 -2.6343079 11.85321 -3.2703552 16.691223c-0.63601685 4.8380127 -0.42474365 9.524445 -0.54592896 12.336884c-0.121154785 2.8124695 1.0905762 1.7861328 -0.18109131 4.5378723c-1.2716675 2.751709 -5.087494 8.631348 -7.448822 11.972473c-2.3613281 3.3411255 -4.236664 6.09375 -6.7191467 8.07431c-2.4825134 1.9805603 -5.1181335 2.902008 -8.175873 3.8090515c-3.0577393 0.90704346 -6.477234 1.4514465 -10.170593 1.6332092c-3.6933594 0.1817627 -8.416901 0.6365967 -11.989502 -0.5426636c-3.5726013 -1.1792297 -7.478119 -3.539032 -9.4461975 -6.5328064c-1.9680786 -2.993805 -1.665802 -7.83136 -2.3622131 -11.42984c-0.69641113 -3.5984802 -1.0292969 -7.4093018 -1.8162537 -10.161041c-0.7869873 -2.751709 -2.4212646 -3.8697815 -2.9055176 -6.349304c-0.48425293 -2.4795227 -0.36306763 -4.808319 0 -8.527832c0.36306763 -3.7194824 1.2401428 -8.9210205 2.1784668 -13.7892c0.938324 -4.868164 2.3009644 -9.780457 3.4514465 -15.4198c1.1504822 -5.639328 1.0896912 -16.798279 3.4514465 -18.416183z" fill-rule="nonzero"></path><path fill="#f3f3f3" d="m327.45258 267.6371c0.5812683 0.5989075 0.9228821 4.0628357 1.7419434 6.245392c0.8190613 2.1825256 2.4015808 2.7626343 3.1723938 6.8498535c0.7708435 4.087219 1.0791626 14.238434 1.4526062 17.673492c0.3734131 3.4350586 1.9415894 3.61969 0.78796387 2.9369507c-1.153595 -0.6827698 -5.956848 -3.2391357 -7.709564 -7.0334167c-1.7526855 -3.794281 -2.6080933 -11.728912 -2.80661 -15.7323c-0.19854736 -4.003418 1.0552063 -6.4647217 1.6154175 -8.288055c0.5602112 -1.8233337 1.1645508 -3.250824 1.7458496 -2.6519165z" fill-rule="nonzero"></path><path fill="#674ea7" d="m324.031 279.90198c-0.8779602 -2.0106812 -1.8451538 0.54486084 -2.3595886 3.2664185c-0.5144348 2.7215881 0.06036377 9.7066345 -0.7270508 13.063049c-0.78738403 3.3564453 -2.8770752 4.2333374 -3.9973755 7.0755005c-1.1202698 2.842163 -2.3311462 7.0143127 -2.7243958 9.977509c-0.3932495 2.9631958 -0.18023682 5.473297 0.36483765 7.8016663c0.54504395 2.3283386 2.1185303 4.2634583 2.9055176 6.1684265c0.7869568 1.9049683 1.7860718 3.8702393 1.8162537 5.261383c0.030181885 1.3911743 -2.9068298 1.1198425 -1.6351624 3.0855408c1.271637 1.9656982 7.5393677 6.3196106 9.265076 8.70871c1.7257385 2.3890686 -1.4536133 4.355652 1.0892639 5.6257935c2.5428467 1.2701111 8.93042 1.1486511 14.167969 1.9949646c5.2375183 0.8463135 12.443573 1.2836609 17.257202 3.0829163c4.8136597 1.7992249 8.20343 5.4898987 11.624695 7.7125244c3.4212646 2.2225952 5.4212646 6.197693 8.902863 5.6231384c3.4816284 -0.5745239 9.0503235 -6.3794556 11.986877 -9.070465c2.9365845 -2.690979 4.723999 -3.2651062 5.6325684 -7.07547c0.90856934 -3.8103943 0.93917847 -10.494843 -0.18112183 -15.786804c-1.1203003 -5.291992 -5.4505615 -10.764404 -6.54068 -15.965088c-1.0901184 -5.200653 0.090545654 -10.944855 0 -15.238892c-0.090545654 -4.2940674 -0.4527588 -6.9570923 -0.54330444 -10.525421c-0.090545654 -3.5683289 1.6955566 -11.549988 0 -10.884552c-1.6955261 0.6654053 -6.8429565 11.127472 -10.173218 14.877136c-3.3302612 3.7496338 -6.2966003 5.987976 -9.808411 7.620758c-3.5118103 1.632782 -7.387146 1.8132324 -11.262451 2.1758728c-3.8753357 0.36264038 -8.84079 0.51382446 -11.989502 0c-3.1487427 -0.51382446 -4.692932 -1.8433838 -6.902893 -3.0829163c-2.209961 -1.2395325 -4.1469727 -2.6608582 -6.356964 -4.3543396c-2.209961 -1.693512 -5.2677 -2.283783 -6.902893 -5.806671c-1.6351624 -3.5228882 -2.030182 -13.319977 -2.9081116 -15.330688z" fill-rule="nonzero"></path><path stroke="#000000" stroke-width="1.0" stroke-linejoin="round" stroke-linecap="butt" d="m324.031 279.90198c-0.8779602 -2.0106812 -1.8451538 0.54486084 -2.3595886 3.2664185c-0.5144348 2.7215881 0.06036377 9.7066345 -0.7270508 13.063049c-0.78738403 3.3564453 -2.8770752 4.2333374 -3.9973755 7.0755005c-1.1202698 2.842163 -2.3311462 7.0143127 -2.7243958 9.977509c-0.3932495 2.9631958 -0.18023682 5.473297 0.36483765 7.8016663c0.54504395 2.3283386 2.1185303 4.2634583 2.9055176 6.1684265c0.7869568 1.9049683 1.7860718 3.8702393 1.8162537 5.261383c0.030181885 1.3911743 -2.9068298 1.1198425 -1.6351624 3.0855408c1.271637 1.9656982 7.5393677 6.3196106 9.265076 8.70871c1.7257385 2.3890686 -1.4536133 4.355652 1.0892639 5.6257935c2.5428467 1.2701111 8.93042 1.1486511 14.167969 1.9949646c5.2375183 0.8463135 12.443573 1.2836609 17.257202 3.0829163c4.8136597 1.7992249 8.20343 5.4898987 11.624695 7.7125244c3.4212646 2.2225952 5.4212646 6.197693 8.902863 5.6231384c3.4816284 -0.5745239 9.0503235 -6.3794556 11.986877 -9.070465c2.9365845 -2.690979 4.723999 -3.2651062 5.6325684 -7.07547c0.90856934 -3.8103943 0.93917847 -10.494843 -0.18112183 -15.786804c-1.1203003 -5.291992 -5.4505615 -10.764404 -6.54068 -15.965088c-1.0901184 -5.200653 0.090545654 -10.944855 0 -15.238892c-0.090545654 -4.2940674 -0.4527588 -6.9570923 -0.54330444 -10.525421c-0.090545654 -3.5683289 1.6955566 -11.549988 0 -10.884552c-1.6955261 0.6654053 -6.8429565 11.127472 -10.173218 14.877136c-3.3302612 3.7496338 -6.2966003 5.987976 -9.808411 7.620758c-3.5118103 1.632782 -7.387146 1.8132324 -11.262451 2.1758728c-3.8753357 0.36264038 -8.84079 0.51382446 -11.989502 0c-3.1487427 -0.51382446 -4.692932 -1.8433838 -6.902893 -3.0829163c-2.209961 -1.2395325 -4.1469727 -2.6608582 -6.356964 -4.3543396c-2.209961 -1.693512 -5.2677 -2.283783 -6.902893 -5.806671c-1.6351624 -3.5228882 -2.030182 -13.319977 -2.9081116 -15.330688z" fill-rule="nonzero"></path><path fill="#ff9900" d="m318.27823 297.6962c9.029724 -0.7545471 1.8258972 0.9490051 2.317566 -1.051239c0.49169922 -2.0002136 0.31628418 -8.107483 0.63253784 -10.950073c0.31628418 -2.8426208 0.77297974 -4.666748 1.2651062 -6.10553c0.49212646 -1.4387817 1.2659607 -1.1936646 1.6876526 -2.5271606c0.4217224 -1.3334656 0.1749878 -3.6137695 0.8425293 -5.4737244c0.6675415 -1.8599854 2.3897705 -2.9487915 3.1627197 -5.686096c0.77297974 -2.7373047 3.196869 -9.755127 1.4750671 -10.737747c-1.7217712 -0.9826355 -8.116364 3.7894135 -11.805756 4.841934c-3.6894226 1.0525513 -6.641754 1.4029541 -10.330719 1.4732971c-3.6889648 0.07034302 -6.4978027 -0.068573 -11.803162 -1.0512085c-5.3053284 -0.9826355 -13.809692 -2.9142761 -20.02887 -4.844589c-6.2191467 -1.9303131 -12.051178 -4.5968323 -17.286072 -6.7373047c-5.234909 -2.1404724 -9.696411 -3.6841125 -14.123367 -6.10553c-4.426941 -2.4214172 -8.573044 -5.6856384 -12.438324 -8.422943c-3.865265 -2.7373047 -8.188095 -5.8604126 -10.753281 -8.000885c-2.5651703 -2.1404724 -0.56211853 -3.473526 -4.637787 -4.8419647c-4.0756836 -1.3684235 -14.545929 -2.77182 -19.816269 -3.3686523c-5.270355 -0.5968323 -7.3438416 -0.8790741 -11.805786 -0.21234131c-4.4619446 0.66674805 -10.538925 1.6157379 -14.965881 4.212784c-4.426941 2.5970612 -8.363068 7.1235504 -11.595795 11.369553c-3.232727 4.245987 -6.1141663 9.439224 -7.800522 14.1064c-1.6863556 4.6671906 -2.3880157 8.615189 -2.3175812 13.896683c0.07041931 5.281494 1.3346405 11.001678 2.740158 17.792297c1.4055023 6.7905884 3.690277 16.529114 5.6929016 22.951416c2.0026245 6.4223022 2.985138 10.914703 6.3228455 15.582336c3.3377075 4.6676025 9.873566 9.598267 13.7034 12.42337c3.829834 2.8251343 6.6404266 1.8429565 9.275604 4.5273743c2.6351624 2.6844482 3.935257 8.228088 6.535431 11.579285c2.600174 3.3511658 7.4492493 8.826202 9.065613 8.5278015c1.6163635 -0.2984314 -0.31584167 -7.0545044 0.63253784 -10.318298c0.9483948 -3.2638245 1.7550354 -5.82547 5.0577545 -9.264465c3.3027039 -3.4389954 10.085297 -8.035858 14.75853 -11.369537c4.673218 -3.3337097 8.67804 -5.8604126 13.280838 -8.63269c4.6027985 -2.7722473 9.136047 -5.649811 14.335953 -8.000885c5.1999207 -2.3510742 5.4094543 -4.5085754 16.863525 -6.10553c11.454071 -1.5969238 42.831146 -2.7215576 51.8609 -3.4761353z" fill-rule="nonzero"></path><path stroke="#000000" stroke-width="1.0" stroke-linejoin="round" stroke-linecap="butt" d="m318.27823 297.6962c9.029724 -0.7545471 1.8258972 0.9490051 2.317566 -1.051239c0.49169922 -2.0002136 0.31628418 -8.107483 0.63253784 -10.950073c0.31628418 -2.8426208 0.77297974 -4.666748 1.2651062 -6.10553c0.49212646 -1.4387817 1.2659607 -1.1936646 1.6876526 -2.5271606c0.4217224 -1.3334656 0.1749878 -3.6137695 0.8425293 -5.4737244c0.6675415 -1.8599854 2.3897705 -2.9487915 3.1627197 -5.686096c0.77297974 -2.7373047 3.196869 -9.755127 1.4750671 -10.737747c-1.7217712 -0.9826355 -8.116364 3.7894135 -11.805756 4.841934c-3.6894226 1.0525513 -6.641754 1.4029541 -10.330719 1.4732971c-3.6889648 0.07034302 -6.4978027 -0.068573 -11.803162 -1.0512085c-5.3053284 -0.9826355 -13.809692 -2.9142761 -20.02887 -4.844589c-6.2191467 -1.9303131 -12.051178 -4.5968323 -17.286072 -6.7373047c-5.234909 -2.1404724 -9.696411 -3.6841125 -14.123367 -6.10553c-4.426941 -2.4214172 -8.573044 -5.6856384 -12.438324 -8.422943c-3.865265 -2.7373047 -8.188095 -5.8604126 -10.753281 -8.000885c-2.5651703 -2.1404724 -0.56211853 -3.473526 -4.637787 -4.8419647c-4.0756836 -1.3684235 -14.545929 -2.77182 -19.816269 -3.3686523c-5.270355 -0.5968323 -7.3438416 -0.8790741 -11.805786 -0.21234131c-4.4619446 0.66674805 -10.538925 1.6157379 -14.965881 4.212784c-4.426941 2.5970612 -8.363068 7.1235504 -11.595795 11.369553c-3.232727 4.245987 -6.1141663 9.439224 -7.800522 14.1064c-1.6863556 4.6671906 -2.3880157 8.615189 -2.3175812 13.896683c0.07041931 5.281494 1.3346405 11.001678 2.740158 17.792297c1.4055023 6.7905884 3.690277 16.529114 5.6929016 22.951416c2.0026245 6.4223022 2.985138 10.914703 6.3228455 15.582336c3.3377075 4.6676025 9.873566 9.598267 13.7034 12.42337c3.829834 2.8251343 6.6404266 1.8429565 9.275604 4.5273743c2.6351624 2.6844482 3.935257 8.228088 6.535431 11.579285c2.600174 3.3511658 7.4492493 8.826202 9.065613 8.5278015c1.6163635 -0.2984314 -0.31584167 -7.0545044 0.63253784 -10.318298c0.9483948 -3.2638245 1.7550354 -5.82547 5.0577545 -9.264465c3.3027039 -3.4389954 10.085297 -8.035858 14.75853 -11.369537c4.673218 -3.3337097 8.67804 -5.8604126 13.280838 -8.63269c4.6027985 -2.7722473 9.136047 -5.649811 14.335953 -8.000885c5.1999207 -2.3510742 5.4094543 -4.5085754 16.863525 -6.10553c11.454071 -1.5969238 42.831146 -2.7215576 51.8609 -3.4761353z" fill-rule="nonzero"></path><path fill="#000000" d="m322.91406 273.90137c-1.0892334 0.105285645 -15.355194 0.31762695 -20.871368 1.4759216c-5.516205 1.1582642 -6.7799683 4.3158875 -12.225739 5.4737244c-5.4457397 1.1578369 -13.035004 1.4033813 -20.448822 1.4732971c-7.4138184 0.06991577 -16.023178 -0.8082886 -24.034119 -1.0538635c-8.010925 -0.24554443 -18.304459 -0.8406372 -24.031494 -0.4194336c-5.7270355 0.4212036 -6.676285 2.0343018 -10.330704 2.9465942c-3.654419 0.9122925 -7.765976 0.56188965 -11.59581 2.5271301c-3.829834 1.965271 -8.713028 6.1059875 -11.383194 9.264465c-2.670166 3.1585083 -3.6539764 5.685669 -4.637802 9.686523c-0.9838104 4.000885 0.17541504 13.125549 -1.265091 14.318756c-1.440506 1.1932373 -5.4807434 -4.913147 -7.377945 -7.159363c-1.8972015 -2.2462158 -2.8460236 -3.5102234 -4.005249 -6.317871c-1.1592407 -2.8076477 -1.6500397 -6.2117004 -2.9501343 -10.528046c-1.3000946 -4.3163147 -3.6557312 -11.264221 -4.8503876 -15.369965c-1.1946716 -4.1057434 -1.6500549 -6.8780212 -2.3175964 -9.264465c-0.6675415 -2.3864746 -1.3713837 -3.1593628 -1.6876526 -5.054291c-0.31628418 -1.894928 -0.63168335 -4.2800903 -0.2099762 -6.3152466c0.4216919 -2.0351868 2.2834625 -3.8951569 2.740158 -5.895813c0.45669556 -2.0006561 -1.545929 -2.774002 0 -6.1081543c1.545929 -3.334137 5.1999054 -10.562988 9.275589 -13.896683c4.0756683 -3.3337097 10.013565 -5.403839 15.178482 -6.10553c5.1649017 -0.7016907 11.067795 0.45658875 15.81102 1.8953705c4.74321 1.4387665 8.537613 4.3508453 12.648285 6.7373047c4.110672 2.3864594 6.780411 4.457901 12.015747 7.581436c5.2353516 3.1235504 12.122925 7.545624 19.396332 11.159821c7.273407 3.614212 17.603668 7.9637604 24.24408 10.525406c6.640442 2.561676 10.925659 3.5106812 15.59845 4.844574c4.6727905 1.3339233 8.60849 2.421875 12.438324 3.1589355c3.829834 0.73709106 6.394562 1.1936646 10.54068 1.2635803c4.1460876 0.06991577 15.425171 -0.9494324 14.3359375 -0.8441162z" fill-rule="nonzero"></path><path stroke="#000000" stroke-width="1.0" stroke-linejoin="round" stroke-linecap="butt" d="m322.91406 273.90137c-1.0892334 0.105285645 -15.355194 0.31762695 -20.871368 1.4759216c-5.516205 1.1582642 -6.7799683 4.3158875 -12.225739 5.4737244c-5.4457397 1.1578369 -13.035004 1.4033813 -20.448822 1.4732971c-7.4138184 0.06991577 -16.023178 -0.8082886 -24.034119 -1.0538635c-8.010925 -0.24554443 -18.304459 -0.8406372 -24.031494 -0.4194336c-5.7270355 0.4212036 -6.676285 2.0343018 -10.330704 2.9465942c-3.654419 0.9122925 -7.765976 0.56188965 -11.59581 2.5271301c-3.829834 1.965271 -8.713028 6.1059875 -11.383194 9.264465c-2.670166 3.1585083 -3.6539764 5.685669 -4.637802 9.686523c-0.9838104 4.000885 0.17541504 13.125549 -1.265091 14.318756c-1.440506 1.1932373 -5.4807434 -4.913147 -7.377945 -7.159363c-1.8972015 -2.2462158 -2.8460236 -3.5102234 -4.005249 -6.317871c-1.1592407 -2.8076477 -1.6500397 -6.2117004 -2.9501343 -10.528046c-1.3000946 -4.3163147 -3.6557312 -11.264221 -4.8503876 -15.369965c-1.1946716 -4.1057434 -1.6500549 -6.8780212 -2.3175964 -9.264465c-0.6675415 -2.3864746 -1.3713837 -3.1593628 -1.6876526 -5.054291c-0.31628418 -1.894928 -0.63168335 -4.2800903 -0.2099762 -6.3152466c0.4216919 -2.0351868 2.2834625 -3.8951569 2.740158 -5.895813c0.45669556 -2.0006561 -1.545929 -2.774002 0 -6.1081543c1.545929 -3.334137 5.1999054 -10.562988 9.275589 -13.896683c4.0756683 -3.3337097 10.013565 -5.403839 15.178482 -6.10553c5.1649017 -0.7016907 11.067795 0.45658875 15.81102 1.8953705c4.74321 1.4387665 8.537613 4.3508453 12.648285 6.7373047c4.110672 2.3864594 6.780411 4.457901 12.015747 7.581436c5.2353516 3.1235504 12.122925 7.545624 19.396332 11.159821c7.273407 3.614212 17.603668 7.9637604 24.24408 10.525406c6.640442 2.561676 10.925659 3.5106812 15.59845 4.844574c4.6727905 1.3339233 8.60849 2.421875 12.438324 3.1589355c3.829834 0.73709106 6.394562 1.1936646 10.54068 1.2635803c4.1460876 0.06991577 15.425171 -0.9494324 14.3359375 -0.8441162z" fill-rule="nonzero"></path><path fill="#ffffff" d="m202.21133 354.64316c0.4216919 1.2321167 0.35694885 4.1913757 2.7821503 4.2966614c2.4252014 0.10531616 7.59317 -2.21167 11.769028 -3.6648865c4.1758575 -1.453186 7.972 -3.2428284 13.286087 -5.054291c5.314087 -1.8114624 11.3867035 -4.8034973 18.598434 -5.8145447c7.2117157 -1.0110168 16.953613 -0.5885315 24.671906 -0.25164795c7.718292 0.33685303 12.696411 1.3885193 21.637787 2.2728577c8.941406 0.8843384 28.446655 5.055176 32.010498 3.0331116c3.5638733 -2.0220947 -9.362183 -12.301056 -10.627289 -15.165527c-1.2650757 -2.864441 3.3950195 0.17959595 3.0367432 -2.0211792c-0.35824585 -2.2007751 -4.2585144 -7.8449097 -5.1863403 -11.183411c-0.9278259 -3.3385315 -1.160553 -5.3509827 -0.38058472 -8.847656c0.77996826 -3.4966736 3.963684 -9.857788 5.060364 -12.132385c1.0966797 -2.2746277 8.225739 -1.5152588 1.5196838 -1.5152588c-6.706024 0 -31.443573 0.8624878 -41.75589 1.5152588c-10.312347 0.6527405 -12.463257 -0.40023804 -20.118103 2.4013062c-7.6548615 2.8015442 -17.544632 9.14212 -25.811035 14.407898c-8.266403 5.265747 -18.979446 13.290222 -23.7874 17.186676c-4.807968 3.8964539 -3.9427032 4.1490173 -5.060364 6.192047c-1.1176758 2.0430298 -1.4133911 4.1913757 -1.6456757 6.0661926c-0.23228455 1.8748474 0.25196838 3.8029785 0.25196838 5.18277c0 1.3797913 -0.6736603 1.8638916 -0.25196838 3.0960083z" fill-rule="nonzero"></path><path stroke="#000000" stroke-width="1.0" stroke-linejoin="round" stroke-linecap="butt" d="m202.21133 354.64316c0.4216919 1.2321167 0.35694885 4.1913757 2.7821503 4.2966614c2.4252014 0.10531616 7.59317 -2.21167 11.769028 -3.6648865c4.1758575 -1.453186 7.972 -3.2428284 13.286087 -5.054291c5.314087 -1.8114624 11.3867035 -4.8034973 18.598434 -5.8145447c7.2117157 -1.0110168 16.953613 -0.5885315 24.671906 -0.25164795c7.718292 0.33685303 12.696411 1.3885193 21.637787 2.2728577c8.941406 0.8843384 28.446655 5.055176 32.010498 3.0331116c3.5638733 -2.0220947 -9.362183 -12.301056 -10.627289 -15.165527c-1.2650757 -2.864441 3.3950195 0.17959595 3.0367432 -2.0211792c-0.35824585 -2.2007751 -4.2585144 -7.8449097 -5.1863403 -11.183411c-0.9278259 -3.3385315 -1.160553 -5.3509827 -0.38058472 -8.847656c0.77996826 -3.4966736 3.963684 -9.857788 5.060364 -12.132385c1.0966797 -2.2746277 8.225739 -1.5152588 1.5196838 -1.5152588c-6.706024 0 -31.443573 0.8624878 -41.75589 1.5152588c-10.312347 0.6527405 -12.463257 -0.40023804 -20.118103 2.4013062c-7.6548615 2.8015442 -17.544632 9.14212 -25.811035 14.407898c-8.266403 5.265747 -18.979446 13.290222 -23.7874 17.186676c-4.807968 3.8964539 -3.9427032 4.1490173 -5.060364 6.192047c-1.1176758 2.0430298 -1.4133911 4.1913757 -1.6456757 6.0661926c-0.23228455 1.8748474 0.25196838 3.8029785 0.25196838 5.18277c0 1.3797913 -0.6736603 1.8638916 -0.25196838 3.0960083z" fill-rule="nonzero"></path><path fill="#000000" d="m255.7448 215.61221c2.1364899 0.13500977 13.300095 0.10398865 12.818893 0.8100586c-0.48117065 0.7060547 -12.667099 1.0520935 -15.706024 3.4263306c-3.0389404 2.3742218 -2.4523163 7.468277 -2.5275574 10.8190155c-0.07524109 3.3507385 -0.18066406 7.151947 2.0761108 9.285431c2.256775 2.133484 6.9212646 2.7490997 11.464569 3.5154572c4.5433044 0.7663574 11.778656 2.6451263 15.795258 1.0826874c4.016632 -1.5624237 6.122925 -6.7006073 8.304474 -10.457245c2.181549 -3.7566376 4.1080627 -8.641418 4.78479 -12.082596c0.6767273 -3.4411926 1.0358582 -6.2055817 -0.72442627 -8.564514c-1.7602844 -2.3589325 -6.452759 -4.627426 -9.83725 -5.589081c-3.3845215 -0.9616699 -6.964569 -0.67678833 -10.469818 -0.18089294c-3.505249 0.49591064 -7.958893 1.9840546 -10.561707 3.156311c-2.6027832 1.1722565 -4.2125854 3.2310333 -5.0551147 3.8772278" fill-rule="nonzero"></path><path stroke="#000000" stroke-width="1.0" stroke-linejoin="round" stroke-linecap="butt" d="m255.7448 215.61221c2.1364899 0.13500977 13.300095 0.10398865 12.818893 0.8100586c-0.48117065 0.7060547 -12.667099 1.0520935 -15.706024 3.4263306c-3.0389404 2.3742218 -2.4523163 7.468277 -2.5275574 10.8190155c-0.07524109 3.3507385 -0.18066406 7.151947 2.0761108 9.285431c2.256775 2.133484 6.9212646 2.7490997 11.464569 3.5154572c4.5433044 0.7663574 11.778656 2.6451263 15.795258 1.0826874c4.016632 -1.5624237 6.122925 -6.7006073 8.304474 -10.457245c2.181549 -3.7566376 4.1080627 -8.641418 4.78479 -12.082596c0.6767273 -3.4411926 1.0358582 -6.2055817 -0.72442627 -8.564514c-1.7602844 -2.3589325 -6.452759 -4.627426 -9.83725 -5.589081c-3.3845215 -0.9616699 -6.964569 -0.67678833 -10.469818 -0.18089294c-3.505249 0.49591064 -7.958893 1.9840546 -10.561707 3.156311c-2.6027832 1.1722565 -4.2125854 3.2310333 -5.0551147 3.8772278" fill-rule="nonzero"></path><path fill="#6aa84f" d="m276.94186 86.92782l134.83466 0l0 46.83465l-134.83466 0z" fill-rule="nonzero"></path><path stroke="#6aa84f" stroke-width="1.0" stroke-linejoin="round" stroke-linecap="butt" d="m276.94186 86.92782l134.83466 0l0 46.83465l-134.83466 0z" fill-rule="nonzero"></path><path fill="#ffffff" d="m322.83176 110.35546l0 0c0 -10.480362 9.638214 -18.97638 21.527557 -18.97638l0 0c11.889343 0 21.527557 8.496017 21.527557 18.97638l0 0c0 10.480362 -9.638214 18.976372 -21.527557 18.976372l0 0c-11.889343 0 -21.527557 -8.49601 -21.527557 -18.976372z" fill-rule="nonzero"></path><path stroke="#000000" stroke-width="1.0" stroke-linejoin="round" stroke-linecap="butt" d="m322.83176 110.35546l0 0c0 -10.480362 9.638214 -18.97638 21.527557 -18.97638l0 0c11.889343 0 21.527557 8.496017 21.527557 18.97638l0 0c0 10.480362 -9.638214 18.976372 -21.527557 18.976372l0 0c-11.889343 0 -21.527557 -8.49601 -21.527557 -18.976372z" fill-rule="nonzero"></path><path fill="#000000" fill-opacity="0.0" d="m193.5243 324.32385c0.58180237 -3.155426 0.082229614 -14.116455 3.4908142 -18.932617c3.4085693 -4.8161926 8.148285 -7.805603 16.960617 -9.9644165c8.812347 -2.1588135 24.939636 -2.7394714 35.91339 -2.9885254c10.973755 -0.24905396 21.53238 2.241394 29.929138 1.4942627c8.396759 -0.74713135 17.042877 -4.980896 20.451447 -5.9770813" fill-rule="nonzero"></path><path stroke="#000000" stroke-width="1.0" stroke-linejoin="round" stroke-linecap="butt" d="m193.5243 324.32385c0.58180237 -3.155426 0.082229614 -14.116455 3.4908142 -18.932617c3.4085693 -4.8161926 8.148285 -7.805603 16.960617 -9.9644165c8.812347 -2.1588135 24.939636 -2.7394714 35.91339 -2.9885254c10.973755 -0.24905396 21.53238 2.241394 29.929138 1.4942627c8.396759 -0.74713135 17.042877 -4.980896 20.451447 -5.9770813" fill-rule="nonzero"></path></g></svg>

